# xmcd
#
# Track frame offsets: 
#        183
#        16758
#        32433
#        48858
#        64758
#        81483
#        96858
#        112158
#        126183
#        141858
#
# Disc length: 2159 seconds
#
# Revision: 0
# Processed by: cddbd v1.5.2PL0 Copyright (c) Steve Scherf et al.
# Submitted via: ExactAudioCopyFreeDBPlugin 1.0
#
DISCID=82086d0a
DTITLE=Matthias Reim - Reim
DYEAR=1990
DGENRE=Schlager
TTITLE0=Verdammt, ich lieb' dich
TTITLE1=Was ist nur los?
TTITLE2=Ganz egal
TTITLE3=Du hast mir den Kopf verdreht
TTITLE4=Gib uns nicht auf!
TTITLE5=Ich hab' geträumt von dir
TTITLE6=Maskenball
TTITLE7=Bastian- Blaulicht in der Nacht
TTITLE8=Selten so gelacht
TTITLE9=Doch da war mehr
EXTD=
EXTT0=
EXTT1=
EXTT2=
EXTT3=
EXTT4=
EXTT5=
EXTT6=
EXTT7=
EXTT8=
EXTT9=
PLAYORDER=
